<svg width="469" height="415" viewBox="0 0 469 415" fill="none" xmlns="http://www.w3.org/2000/svg">
<path d="M0 30C0 13.4315 13.4315 0 30 0H439C455.569 0 469 13.4315 469 30V385C469 401.569 455.569 415 439 415H30C13.4314 415 0 401.569 0 385V30Z" fill="#44FF2F" fill-opacity="0.5"/>
<path d="M0 30C0 13.4315 13.4315 0 30 0H439C455.569 0 469 13.4315 469 30V385C469 401.569 455.569 415 439 415H30C13.4314 415 0 401.569 0 385V30Z" fill="#00CA07" fill-opacity="0.5"/>
<rect x="106" y="134" width="264" height="123" rx="61.5" fill="#7FFF85" stroke="#7FFF85" stroke-width="2"/>
<rect x="101" y="129" width="264" height="123" rx="61.5" fill="white" stroke="#7FFF85" stroke-width="2"/>
<mask id="path-4-outside-1_2_6" maskUnits="userSpaceOnUse" x="125" y="174" width="216" height="45" fill="black">
<rect fill="white" x="125" y="174" width="216" height="45"/>
<path d="M139.265 205.504C135.868 205.504 133.068 204.851 130.865 203.544C128.7 202.237 127.617 200.501 127.617 198.336C127.617 196.32 129.036 195.256 131.873 195.144C132.209 196.936 133.031 198.299 134.337 199.232C135.644 200.128 137.231 200.576 139.097 200.576C141.113 200.576 142.681 200.315 143.801 199.792C144.921 199.232 145.481 198.411 145.481 197.328C145.481 196.283 144.996 195.461 144.025 194.864C143.092 194.229 141.281 193.595 138.593 192.96C135.943 192.363 133.852 191.728 132.321 191.056C130.791 190.384 129.633 189.525 128.849 188.48C128.103 187.435 127.729 186.053 127.729 184.336C127.729 182.021 128.719 180.136 130.697 178.68C132.713 177.224 135.401 176.496 138.761 176.496C142.009 176.496 144.735 177.093 146.937 178.288C149.14 179.483 150.241 181.069 150.241 183.048C150.241 184.019 149.868 184.747 149.121 185.232C148.412 185.717 147.311 185.979 145.817 186.016C145.22 182.843 142.961 181.256 139.041 181.256C137.511 181.256 136.223 181.536 135.177 182.096C134.169 182.656 133.665 183.384 133.665 184.28C133.665 185.213 134.113 185.941 135.009 186.464C135.943 186.949 137.492 187.416 139.657 187.864C143.764 188.723 146.751 189.88 148.617 191.336C150.484 192.792 151.417 194.789 151.417 197.328C151.417 199.829 150.335 201.827 148.169 203.32C146.004 204.776 143.036 205.504 139.265 205.504ZM165.38 205.504C163.401 205.504 161.609 205.131 160.004 204.384C158.398 203.637 157.129 202.555 156.196 201.136C155.262 199.717 154.796 198.056 154.796 196.152C154.796 194.211 155.281 192.531 156.252 191.112C157.26 189.656 158.622 188.555 160.34 187.808C162.057 187.024 163.98 186.632 166.108 186.632C169.505 186.632 172.361 187.789 174.676 190.104L174.956 189.824C174.284 189.152 173.742 188.667 173.332 188.368V186.8C173.332 185.157 172.772 183.869 171.652 182.936C170.532 181.965 168.964 181.48 166.948 181.48C165.156 181.48 163.588 181.835 162.244 182.544C160.9 183.216 159.817 184.224 158.996 185.568C158.249 185.307 157.614 184.896 157.092 184.336C156.606 183.776 156.364 183.179 156.364 182.544C156.364 181.461 156.868 180.453 157.876 179.52C158.884 178.587 160.228 177.859 161.908 177.336C163.625 176.776 165.473 176.496 167.452 176.496C171.26 176.496 174.209 177.411 176.3 179.24C178.428 181.032 179.492 183.496 179.492 186.632V201.136C179.492 202.667 179.025 203.787 178.092 204.496C177.158 205.168 175.665 205.504 173.612 205.504V203.096C174.284 202.424 174.732 201.939 174.956 201.64L174.676 201.416C173.481 202.76 172.137 203.787 170.644 204.496C169.188 205.168 167.433 205.504 165.38 205.504ZM166.836 200.8C168.889 200.8 170.494 200.389 171.652 199.568C172.846 198.747 173.444 197.589 173.444 196.096C173.444 194.603 172.846 193.445 171.652 192.624C170.494 191.765 168.908 191.336 166.892 191.336C165.062 191.336 163.606 191.765 162.524 192.624C161.478 193.445 160.956 194.603 160.956 196.096C160.956 197.627 161.478 198.803 162.524 199.624C163.569 200.408 165.006 200.8 166.836 200.8ZM187.031 216.704C185.687 216.704 184.642 216.256 183.895 215.36C183.149 214.464 182.757 213.157 182.719 211.44C183.765 211.627 184.661 211.72 185.407 211.72C186.901 211.72 188.077 211.291 188.935 210.432C189.831 209.611 190.783 208.061 191.791 205.784L192.799 203.544L181.879 177C182.141 176.851 182.551 176.739 183.111 176.664C183.709 176.552 184.213 176.496 184.623 176.496C185.594 176.496 186.471 176.72 187.255 177.168C188.077 177.579 188.637 178.176 188.935 178.96L195.431 195.872L194.591 198.336L194.983 198.504L202.655 178.96C202.991 178.176 203.551 177.579 204.335 177.168C205.119 176.72 205.997 176.496 206.967 176.496C207.378 176.496 207.863 176.552 208.423 176.664C209.021 176.739 209.45 176.851 209.711 177L197.167 207.632C195.898 210.693 194.479 212.971 192.911 214.464C191.343 215.957 189.383 216.704 187.031 216.704ZM224.508 205.504C221.111 205.504 218.311 204.851 216.108 203.544C213.943 202.237 212.86 200.501 212.86 198.336C212.86 196.32 214.279 195.256 217.116 195.144C217.452 196.936 218.273 198.299 219.58 199.232C220.887 200.128 222.473 200.576 224.34 200.576C226.356 200.576 227.924 200.315 229.044 199.792C230.164 199.232 230.724 198.411 230.724 197.328C230.724 196.283 230.239 195.461 229.268 194.864C228.335 194.229 226.524 193.595 223.836 192.96C221.185 192.363 219.095 191.728 217.564 191.056C216.033 190.384 214.876 189.525 214.092 188.48C213.345 187.435 212.972 186.053 212.972 184.336C212.972 182.021 213.961 180.136 215.94 178.68C217.956 177.224 220.644 176.496 224.004 176.496C227.252 176.496 229.977 177.093 232.18 178.288C234.383 179.483 235.484 181.069 235.484 183.048C235.484 184.019 235.111 184.747 234.364 185.232C233.655 185.717 232.553 185.979 231.06 186.016C230.463 182.843 228.204 181.256 224.284 181.256C222.753 181.256 221.465 181.536 220.42 182.096C219.412 182.656 218.908 183.384 218.908 184.28C218.908 185.213 219.356 185.941 220.252 186.464C221.185 186.949 222.735 187.416 224.9 187.864C229.007 188.723 231.993 189.88 233.86 191.336C235.727 192.792 236.66 194.789 236.66 197.328C236.66 199.829 235.577 201.827 233.412 203.32C231.247 204.776 228.279 205.504 224.508 205.504ZM252.694 205.504C250.305 205.504 248.14 205.075 246.198 204.216C244.294 203.32 242.782 202.107 241.662 200.576C240.58 199.045 240.038 197.309 240.038 195.368V187.08C240.038 185.101 240.58 183.309 241.662 181.704C242.745 180.099 244.238 178.829 246.142 177.896C248.084 176.963 250.268 176.496 252.694 176.496C255.121 176.496 257.286 176.963 259.19 177.896C261.132 178.829 262.644 180.099 263.726 181.704C264.809 183.309 265.35 185.101 265.35 187.08V195.368C265.35 197.309 264.79 199.045 263.67 200.576C262.588 202.107 261.076 203.32 259.134 204.216C257.23 205.075 255.084 205.504 252.694 205.504ZM252.694 200.072C254.673 200.072 256.241 199.624 257.398 198.728C258.556 197.795 259.134 196.544 259.134 194.976V187.36C259.134 185.717 258.556 184.392 257.398 183.384C256.241 182.376 254.673 181.872 252.694 181.872C250.716 181.872 249.148 182.376 247.99 183.384C246.833 184.392 246.254 185.717 246.254 187.36V194.976C246.254 196.544 246.833 197.795 247.99 198.728C249.148 199.624 250.716 200.072 252.694 200.072ZM270.98 181.48C270.98 178.157 272.959 176.496 276.916 176.496V179.912C276.319 180.584 275.889 181.163 275.628 181.648L275.908 181.872C277.103 180.117 278.353 178.792 279.66 177.896C280.967 176.963 282.516 176.496 284.308 176.496C287.556 176.496 289.833 178.101 291.14 181.312C292.111 179.781 293.305 178.605 294.724 177.784C296.143 176.925 297.785 176.496 299.652 176.496C302.228 176.496 304.244 177.411 305.7 179.24C307.193 181.069 307.94 183.403 307.94 186.24V201.472C307.94 202.891 307.436 203.917 306.428 204.552C305.42 205.187 303.871 205.504 301.78 205.504V186.744C301.78 185.213 301.444 184.019 300.772 183.16C300.1 182.264 299.073 181.816 297.692 181.816C296.236 181.816 295.004 182.32 293.996 183.328C293.025 184.299 292.54 185.755 292.54 187.696V201.472C292.54 202.891 292.036 203.917 291.028 204.552C290.02 205.187 288.489 205.504 286.436 205.504V186.744C286.436 183.459 285.092 181.816 282.404 181.816C280.799 181.816 279.511 182.376 278.54 183.496C277.607 184.616 277.14 186.072 277.14 187.864V201.472C277.14 202.891 276.636 203.917 275.628 204.552C274.62 205.187 273.071 205.504 270.98 205.504V181.48ZM326.998 205.504C324.721 205.504 322.63 205.056 320.726 204.16C318.859 203.264 317.385 202.032 316.302 200.464C315.219 198.859 314.678 197.067 314.678 195.088V187.36C314.678 185.307 315.238 183.459 316.358 181.816C317.478 180.173 318.99 178.885 320.894 177.952C322.798 176.981 324.851 176.496 327.054 176.496C329.257 176.496 331.254 176.944 333.046 177.84C334.875 178.736 336.313 180.005 337.358 181.648C338.441 183.253 338.982 185.064 338.982 187.08V190.384C338.982 191.131 338.702 191.765 338.142 192.288C337.582 192.811 336.873 193.072 336.014 193.072H320.782V194.696C320.782 196.413 321.305 197.795 322.35 198.84C323.433 199.885 325.001 200.408 327.054 200.408C329.07 200.408 330.582 199.979 331.59 199.12C332.598 198.224 333.102 197.048 333.102 195.592C333.326 195.555 333.662 195.536 334.11 195.536C335.379 195.536 336.387 195.835 337.134 196.432C337.918 196.992 338.31 197.795 338.31 198.84C338.31 199.96 337.806 201.043 336.798 202.088C335.79 203.096 334.409 203.917 332.654 204.552C330.937 205.187 329.051 205.504 326.998 205.504ZM333.214 188.424V187.08C333.214 185.4 332.635 184.056 331.478 183.048C330.358 182.003 328.865 181.48 326.998 181.48C325.131 181.48 323.619 182.003 322.462 183.048C321.342 184.056 320.782 185.4 320.782 187.08V188.424H333.214Z"/>
</mask>
<path d="M139.265 205.504C135.868 205.504 133.068 204.851 130.865 203.544C128.7 202.237 127.617 200.501 127.617 198.336C127.617 196.32 129.036 195.256 131.873 195.144C132.209 196.936 133.031 198.299 134.337 199.232C135.644 200.128 137.231 200.576 139.097 200.576C141.113 200.576 142.681 200.315 143.801 199.792C144.921 199.232 145.481 198.411 145.481 197.328C145.481 196.283 144.996 195.461 144.025 194.864C143.092 194.229 141.281 193.595 138.593 192.96C135.943 192.363 133.852 191.728 132.321 191.056C130.791 190.384 129.633 189.525 128.849 188.48C128.103 187.435 127.729 186.053 127.729 184.336C127.729 182.021 128.719 180.136 130.697 178.68C132.713 177.224 135.401 176.496 138.761 176.496C142.009 176.496 144.735 177.093 146.937 178.288C149.14 179.483 150.241 181.069 150.241 183.048C150.241 184.019 149.868 184.747 149.121 185.232C148.412 185.717 147.311 185.979 145.817 186.016C145.22 182.843 142.961 181.256 139.041 181.256C137.511 181.256 136.223 181.536 135.177 182.096C134.169 182.656 133.665 183.384 133.665 184.28C133.665 185.213 134.113 185.941 135.009 186.464C135.943 186.949 137.492 187.416 139.657 187.864C143.764 188.723 146.751 189.88 148.617 191.336C150.484 192.792 151.417 194.789 151.417 197.328C151.417 199.829 150.335 201.827 148.169 203.32C146.004 204.776 143.036 205.504 139.265 205.504ZM165.38 205.504C163.401 205.504 161.609 205.131 160.004 204.384C158.398 203.637 157.129 202.555 156.196 201.136C155.262 199.717 154.796 198.056 154.796 196.152C154.796 194.211 155.281 192.531 156.252 191.112C157.26 189.656 158.622 188.555 160.34 187.808C162.057 187.024 163.98 186.632 166.108 186.632C169.505 186.632 172.361 187.789 174.676 190.104L174.956 189.824C174.284 189.152 173.742 188.667 173.332 188.368V186.8C173.332 185.157 172.772 183.869 171.652 182.936C170.532 181.965 168.964 181.48 166.948 181.48C165.156 181.48 163.588 181.835 162.244 182.544C160.9 183.216 159.817 184.224 158.996 185.568C158.249 185.307 157.614 184.896 157.092 184.336C156.606 183.776 156.364 183.179 156.364 182.544C156.364 181.461 156.868 180.453 157.876 179.52C158.884 178.587 160.228 177.859 161.908 177.336C163.625 176.776 165.473 176.496 167.452 176.496C171.26 176.496 174.209 177.411 176.3 179.24C178.428 181.032 179.492 183.496 179.492 186.632V201.136C179.492 202.667 179.025 203.787 178.092 204.496C177.158 205.168 175.665 205.504 173.612 205.504V203.096C174.284 202.424 174.732 201.939 174.956 201.64L174.676 201.416C173.481 202.76 172.137 203.787 170.644 204.496C169.188 205.168 167.433 205.504 165.38 205.504ZM166.836 200.8C168.889 200.8 170.494 200.389 171.652 199.568C172.846 198.747 173.444 197.589 173.444 196.096C173.444 194.603 172.846 193.445 171.652 192.624C170.494 191.765 168.908 191.336 166.892 191.336C165.062 191.336 163.606 191.765 162.524 192.624C161.478 193.445 160.956 194.603 160.956 196.096C160.956 197.627 161.478 198.803 162.524 199.624C163.569 200.408 165.006 200.8 166.836 200.8ZM187.031 216.704C185.687 216.704 184.642 216.256 183.895 215.36C183.149 214.464 182.757 213.157 182.719 211.44C183.765 211.627 184.661 211.72 185.407 211.72C186.901 211.72 188.077 211.291 188.935 210.432C189.831 209.611 190.783 208.061 191.791 205.784L192.799 203.544L181.879 177C182.141 176.851 182.551 176.739 183.111 176.664C183.709 176.552 184.213 176.496 184.623 176.496C185.594 176.496 186.471 176.72 187.255 177.168C188.077 177.579 188.637 178.176 188.935 178.96L195.431 195.872L194.591 198.336L194.983 198.504L202.655 178.96C202.991 178.176 203.551 177.579 204.335 177.168C205.119 176.72 205.997 176.496 206.967 176.496C207.378 176.496 207.863 176.552 208.423 176.664C209.021 176.739 209.45 176.851 209.711 177L197.167 207.632C195.898 210.693 194.479 212.971 192.911 214.464C191.343 215.957 189.383 216.704 187.031 216.704ZM224.508 205.504C221.111 205.504 218.311 204.851 216.108 203.544C213.943 202.237 212.86 200.501 212.86 198.336C212.86 196.32 214.279 195.256 217.116 195.144C217.452 196.936 218.273 198.299 219.58 199.232C220.887 200.128 222.473 200.576 224.34 200.576C226.356 200.576 227.924 200.315 229.044 199.792C230.164 199.232 230.724 198.411 230.724 197.328C230.724 196.283 230.239 195.461 229.268 194.864C228.335 194.229 226.524 193.595 223.836 192.96C221.185 192.363 219.095 191.728 217.564 191.056C216.033 190.384 214.876 189.525 214.092 188.48C213.345 187.435 212.972 186.053 212.972 184.336C212.972 182.021 213.961 180.136 215.94 178.68C217.956 177.224 220.644 176.496 224.004 176.496C227.252 176.496 229.977 177.093 232.18 178.288C234.383 179.483 235.484 181.069 235.484 183.048C235.484 184.019 235.111 184.747 234.364 185.232C233.655 185.717 232.553 185.979 231.06 186.016C230.463 182.843 228.204 181.256 224.284 181.256C222.753 181.256 221.465 181.536 220.42 182.096C219.412 182.656 218.908 183.384 218.908 184.28C218.908 185.213 219.356 185.941 220.252 186.464C221.185 186.949 222.735 187.416 224.9 187.864C229.007 188.723 231.993 189.88 233.86 191.336C235.727 192.792 236.66 194.789 236.66 197.328C236.66 199.829 235.577 201.827 233.412 203.32C231.247 204.776 228.279 205.504 224.508 205.504ZM252.694 205.504C250.305 205.504 248.14 205.075 246.198 204.216C244.294 203.32 242.782 202.107 241.662 200.576C240.58 199.045 240.038 197.309 240.038 195.368V187.08C240.038 185.101 240.58 183.309 241.662 181.704C242.745 180.099 244.238 178.829 246.142 177.896C248.084 176.963 250.268 176.496 252.694 176.496C255.121 176.496 257.286 176.963 259.19 177.896C261.132 178.829 262.644 180.099 263.726 181.704C264.809 183.309 265.35 185.101 265.35 187.08V195.368C265.35 197.309 264.79 199.045 263.67 200.576C262.588 202.107 261.076 203.32 259.134 204.216C257.23 205.075 255.084 205.504 252.694 205.504ZM252.694 200.072C254.673 200.072 256.241 199.624 257.398 198.728C258.556 197.795 259.134 196.544 259.134 194.976V187.36C259.134 185.717 258.556 184.392 257.398 183.384C256.241 182.376 254.673 181.872 252.694 181.872C250.716 181.872 249.148 182.376 247.99 183.384C246.833 184.392 246.254 185.717 246.254 187.36V194.976C246.254 196.544 246.833 197.795 247.99 198.728C249.148 199.624 250.716 200.072 252.694 200.072ZM270.98 181.48C270.98 178.157 272.959 176.496 276.916 176.496V179.912C276.319 180.584 275.889 181.163 275.628 181.648L275.908 181.872C277.103 180.117 278.353 178.792 279.66 177.896C280.967 176.963 282.516 176.496 284.308 176.496C287.556 176.496 289.833 178.101 291.14 181.312C292.111 179.781 293.305 178.605 294.724 177.784C296.143 176.925 297.785 176.496 299.652 176.496C302.228 176.496 304.244 177.411 305.7 179.24C307.193 181.069 307.94 183.403 307.94 186.24V201.472C307.94 202.891 307.436 203.917 306.428 204.552C305.42 205.187 303.871 205.504 301.78 205.504V186.744C301.78 185.213 301.444 184.019 300.772 183.16C300.1 182.264 299.073 181.816 297.692 181.816C296.236 181.816 295.004 182.32 293.996 183.328C293.025 184.299 292.54 185.755 292.54 187.696V201.472C292.54 202.891 292.036 203.917 291.028 204.552C290.02 205.187 288.489 205.504 286.436 205.504V186.744C286.436 183.459 285.092 181.816 282.404 181.816C280.799 181.816 279.511 182.376 278.54 183.496C277.607 184.616 277.14 186.072 277.14 187.864V201.472C277.14 202.891 276.636 203.917 275.628 204.552C274.62 205.187 273.071 205.504 270.98 205.504V181.48ZM326.998 205.504C324.721 205.504 322.63 205.056 320.726 204.16C318.859 203.264 317.385 202.032 316.302 200.464C315.219 198.859 314.678 197.067 314.678 195.088V187.36C314.678 185.307 315.238 183.459 316.358 181.816C317.478 180.173 318.99 178.885 320.894 177.952C322.798 176.981 324.851 176.496 327.054 176.496C329.257 176.496 331.254 176.944 333.046 177.84C334.875 178.736 336.313 180.005 337.358 181.648C338.441 183.253 338.982 185.064 338.982 187.08V190.384C338.982 191.131 338.702 191.765 338.142 192.288C337.582 192.811 336.873 193.072 336.014 193.072H320.782V194.696C320.782 196.413 321.305 197.795 322.35 198.84C323.433 199.885 325.001 200.408 327.054 200.408C329.07 200.408 330.582 199.979 331.59 199.12C332.598 198.224 333.102 197.048 333.102 195.592C333.326 195.555 333.662 195.536 334.11 195.536C335.379 195.536 336.387 195.835 337.134 196.432C337.918 196.992 338.31 197.795 338.31 198.84C338.31 199.96 337.806 201.043 336.798 202.088C335.79 203.096 334.409 203.917 332.654 204.552C330.937 205.187 329.051 205.504 326.998 205.504ZM333.214 188.424V187.08C333.214 185.4 332.635 184.056 331.478 183.048C330.358 182.003 328.865 181.48 326.998 181.48C325.131 181.48 323.619 182.003 322.462 183.048C321.342 184.056 320.782 185.4 320.782 187.08V188.424H333.214Z" fill="#4EFE41"/>
<path d="M130.865 203.544L129.832 205.256L129.839 205.26L129.845 205.264L130.865 203.544ZM131.873 195.144L133.839 194.775L133.521 193.077L131.795 193.146L131.873 195.144ZM134.337 199.232L133.175 200.859L133.191 200.871L133.206 200.881L134.337 199.232ZM143.801 199.792L144.647 201.604L144.672 201.593L144.696 201.581L143.801 199.792ZM144.025 194.864L142.901 196.518L142.938 196.543L142.977 196.567L144.025 194.864ZM138.593 192.96L139.053 191.014L139.043 191.011L139.033 191.009L138.593 192.96ZM132.321 191.056L131.517 192.887L131.517 192.887L132.321 191.056ZM128.849 188.48L127.222 189.642L127.235 189.661L127.249 189.68L128.849 188.48ZM130.697 178.68L129.526 177.059L129.519 177.064L129.512 177.069L130.697 178.68ZM146.937 178.288L147.891 176.53L147.891 176.53L146.937 178.288ZM149.121 185.232L148.031 183.555L148.012 183.568L147.992 183.581L149.121 185.232ZM145.817 186.016L143.852 186.386L144.167 188.058L145.867 188.015L145.817 186.016ZM135.177 182.096L134.233 180.333L134.219 180.34L134.206 180.348L135.177 182.096ZM135.009 186.464L134.002 188.192L134.044 188.216L134.087 188.238L135.009 186.464ZM139.657 187.864L140.067 185.906L140.063 185.905L139.657 187.864ZM148.617 191.336L149.847 189.759L149.847 189.759L148.617 191.336ZM148.169 203.32L149.285 204.98L149.295 204.973L149.305 204.966L148.169 203.32ZM139.265 205.504V203.504C136.113 203.504 133.695 202.897 131.886 201.824L130.865 203.544L129.845 205.264C132.442 206.804 135.623 207.504 139.265 207.504V205.504ZM130.865 203.544L131.899 201.832C130.214 200.815 129.617 199.672 129.617 198.336H127.617H125.617C125.617 201.331 127.186 203.659 129.832 205.256L130.865 203.544ZM127.617 198.336H129.617C129.617 197.859 129.75 197.725 129.881 197.626C130.124 197.444 130.715 197.191 131.952 197.142L131.873 195.144L131.795 193.146C130.194 193.209 128.657 193.544 127.481 194.426C126.195 195.391 125.617 196.797 125.617 198.336H127.617ZM131.873 195.144L129.908 195.513C130.325 197.738 131.39 199.585 133.175 200.859L134.337 199.232L135.5 197.605C134.671 197.013 134.094 196.134 133.839 194.775L131.873 195.144ZM134.337 199.232L133.206 200.881C134.902 202.044 136.901 202.576 139.097 202.576V200.576V198.576C137.561 198.576 136.386 198.212 135.468 197.583L134.337 199.232ZM139.097 200.576V202.576C141.243 202.576 143.147 202.305 144.647 201.604L143.801 199.792L142.956 197.98C142.216 198.325 140.984 198.576 139.097 198.576V200.576ZM143.801 199.792L144.696 201.581C145.483 201.187 146.198 200.639 146.714 199.883C147.241 199.11 147.481 198.234 147.481 197.328H145.481H143.481C143.481 197.505 143.442 197.58 143.409 197.629C143.365 197.694 143.24 197.837 142.907 198.003L143.801 199.792ZM145.481 197.328H147.481C147.481 195.516 146.572 194.083 145.074 193.161L144.025 194.864L142.977 196.567C143.421 196.84 143.481 197.049 143.481 197.328H145.481ZM144.025 194.864L145.15 193.21C143.878 192.345 141.732 191.646 139.053 191.014L138.593 192.96L138.134 194.906C140.831 195.543 142.306 196.114 142.901 196.518L144.025 194.864ZM138.593 192.96L139.033 191.009C136.44 190.425 134.489 189.823 133.125 189.225L132.321 191.056L131.517 192.887C133.215 193.633 135.445 194.301 138.154 194.911L138.593 192.96ZM132.321 191.056L133.125 189.225C131.824 188.653 130.977 187.983 130.449 187.28L128.849 188.48L127.249 189.68C128.29 191.067 129.758 192.115 131.517 192.887L132.321 191.056ZM128.849 188.48L130.477 187.318C130.042 186.709 129.729 185.775 129.729 184.336H127.729H125.729C125.729 186.332 126.163 188.16 127.222 189.642L128.849 188.48ZM127.729 184.336H129.729C129.729 182.702 130.38 181.397 131.883 180.291L130.697 178.68L129.512 177.069C127.058 178.875 125.729 181.341 125.729 184.336H127.729ZM130.697 178.68L131.868 180.301C133.442 179.165 135.677 178.496 138.761 178.496V176.496V174.496C135.126 174.496 131.985 175.283 129.526 177.059L130.697 178.68ZM138.761 176.496V178.496C141.772 178.496 144.148 179.05 145.984 180.046L146.937 178.288L147.891 176.53C145.322 175.136 142.247 174.496 138.761 174.496V176.496ZM146.937 178.288L145.984 180.046C147.743 181 148.241 182.007 148.241 183.048H150.241H152.241C152.241 180.132 150.537 177.965 147.891 176.53L146.937 178.288ZM150.241 183.048H148.241C148.241 183.275 148.199 183.376 148.182 183.409C148.168 183.436 148.139 183.485 148.031 183.555L149.121 185.232L150.211 186.909C151.584 186.017 152.241 184.623 152.241 183.048H150.241ZM149.121 185.232L147.992 183.581C147.759 183.741 147.125 183.983 145.767 184.017L145.817 186.016L145.867 188.015C147.496 187.975 149.065 187.694 150.251 186.883L149.121 185.232ZM145.817 186.016L147.783 185.646C147.405 183.64 146.453 181.953 144.825 180.809C143.244 179.699 141.246 179.256 139.041 179.256V181.256V183.256C140.756 183.256 141.848 183.606 142.526 184.083C143.156 184.526 143.632 185.218 143.852 186.386L145.817 186.016ZM139.041 181.256V179.256C137.274 179.256 135.641 179.579 134.233 180.333L135.177 182.096L136.122 183.859C136.804 183.493 137.747 183.256 139.041 183.256V181.256ZM135.177 182.096L134.206 180.348C132.775 181.143 131.665 182.444 131.665 184.28H133.665H135.665C135.665 184.246 135.67 184.233 135.67 184.232C135.67 184.232 135.673 184.222 135.688 184.2C135.721 184.153 135.835 184.019 136.149 183.844L135.177 182.096ZM133.665 184.28H131.665C131.665 186.015 132.574 187.359 134.002 188.192L135.009 186.464L136.017 184.736C135.793 184.606 135.723 184.508 135.705 184.478C135.692 184.458 135.665 184.412 135.665 184.28H133.665ZM135.009 186.464L134.087 188.238C135.28 188.859 137.059 189.369 139.252 189.823L139.657 187.864L140.063 185.905C137.925 185.463 136.606 185.04 135.932 184.69L135.009 186.464ZM139.657 187.864L139.248 189.822C143.253 190.659 145.882 191.738 147.387 192.913L148.617 191.336L149.847 189.759C147.62 188.022 144.275 186.786 140.067 185.906L139.657 187.864ZM148.617 191.336L147.387 192.913C148.729 193.959 149.417 195.354 149.417 197.328H151.417H153.417C153.417 194.225 152.239 191.625 149.847 189.759L148.617 191.336ZM151.417 197.328H149.417C149.417 199.133 148.691 200.531 147.034 201.674L148.169 203.32L149.305 204.966C151.978 203.123 153.417 200.526 153.417 197.328H151.417ZM148.169 203.32L147.053 201.66C145.335 202.816 142.807 203.504 139.265 203.504V205.504V207.504C143.265 207.504 146.674 206.736 149.285 204.98L148.169 203.32ZM160.004 204.384L159.16 206.197L159.16 206.197L160.004 204.384ZM156.196 201.136L157.867 200.037L157.867 200.037L156.196 201.136ZM156.252 191.112L154.607 189.974L154.601 189.983L156.252 191.112ZM160.34 187.808L161.137 189.642L161.154 189.635L161.17 189.627L160.34 187.808ZM174.676 190.104L173.262 191.518L174.676 192.932L176.09 191.518L174.676 190.104ZM174.956 189.824L176.37 191.238L177.784 189.824L176.37 188.41L174.956 189.824ZM173.332 188.368H171.332V189.386L172.155 189.985L173.332 188.368ZM171.652 182.936L170.342 184.447L170.357 184.46L170.371 184.472L171.652 182.936ZM162.244 182.544L163.138 184.333L163.158 184.323L163.177 184.313L162.244 182.544ZM158.996 185.568L158.335 187.456L159.86 187.989L160.702 186.611L158.996 185.568ZM157.092 184.336L155.58 185.646L155.605 185.674L155.63 185.701L157.092 184.336ZM161.908 177.336L162.502 179.246L162.515 179.242L162.528 179.237L161.908 177.336ZM176.3 179.24L174.983 180.745L174.997 180.758L175.012 180.77L176.3 179.24ZM178.092 204.496L179.26 206.119L179.281 206.104L179.302 206.088L178.092 204.496ZM173.612 205.504H171.612V207.504H173.612V205.504ZM173.612 203.096L172.198 201.682L171.612 202.268V203.096H173.612ZM174.956 201.64L176.556 202.84L177.719 201.289L176.205 200.078L174.956 201.64ZM174.676 201.416L175.925 199.854L174.442 198.668L173.181 200.087L174.676 201.416ZM170.644 204.496L171.482 206.312L171.492 206.307L171.502 206.303L170.644 204.496ZM171.652 199.568L170.519 197.92L170.506 197.928L170.494 197.937L171.652 199.568ZM171.652 192.624L170.46 194.23L170.489 194.252L170.519 194.272L171.652 192.624ZM162.524 192.624L163.759 194.197L163.767 194.191L162.524 192.624ZM162.524 199.624L161.288 201.197L161.306 201.211L161.324 201.224L162.524 199.624ZM165.38 205.504V203.504C163.658 203.504 162.159 203.181 160.847 202.571L160.004 204.384L159.16 206.197C161.059 207.081 163.144 207.504 165.38 207.504V205.504ZM160.004 204.384L160.847 202.571C159.564 201.974 158.587 201.132 157.867 200.037L156.196 201.136L154.525 202.235C155.671 203.978 157.233 205.301 159.16 206.197L160.004 204.384ZM156.196 201.136L157.867 200.037C157.173 198.983 156.796 197.714 156.796 196.152H154.796H152.796C152.796 198.398 153.351 200.452 154.525 202.235L156.196 201.136ZM154.796 196.152H156.796C156.796 194.56 157.188 193.285 157.902 192.241L156.252 191.112L154.601 189.983C153.374 191.776 152.796 193.862 152.796 196.152H154.796ZM156.252 191.112L157.896 192.25C158.68 191.119 159.741 190.249 161.137 189.642L160.34 187.808L159.542 185.974C157.504 186.86 155.84 188.193 154.607 189.974L156.252 191.112ZM160.34 187.808L161.17 189.627C162.596 188.977 164.23 188.632 166.108 188.632V186.632V184.632C163.73 184.632 161.519 185.071 159.509 185.989L160.34 187.808ZM166.108 186.632V188.632C168.997 188.632 171.338 189.594 173.262 191.518L174.676 190.104L176.09 188.69C173.385 185.984 170.013 184.632 166.108 184.632V186.632ZM174.676 190.104L176.09 191.518L176.37 191.238L174.956 189.824L173.542 188.41L173.262 188.69L174.676 190.104ZM174.956 189.824L176.37 188.41C175.676 187.716 175.047 187.142 174.508 186.751L173.332 188.368L172.155 189.985C172.438 190.191 172.892 190.588 173.542 191.238L174.956 189.824ZM173.332 188.368H175.332V186.8H173.332H171.332V188.368H173.332ZM173.332 186.8H175.332C175.332 184.648 174.569 182.764 172.932 181.4L171.652 182.936L170.371 184.472C170.974 184.975 171.332 185.666 171.332 186.8H173.332ZM171.652 182.936L172.962 181.425C171.365 180.041 169.271 179.48 166.948 179.48V181.48V183.48C168.657 183.48 169.698 183.89 170.342 184.447L171.652 182.936ZM166.948 181.48V179.48C164.889 179.48 162.989 179.889 161.31 180.775L162.244 182.544L163.177 184.313C164.186 183.78 165.423 183.48 166.948 183.48V181.48ZM162.244 182.544L161.349 180.755C159.654 181.603 158.296 182.877 157.289 184.525L158.996 185.568L160.702 186.611C161.338 185.571 162.146 184.829 163.138 184.333L162.244 182.544ZM158.996 185.568L159.656 183.68C159.205 183.522 158.848 183.287 158.554 182.971L157.092 184.336L155.63 185.701C156.381 186.505 157.293 187.091 158.335 187.456L158.996 185.568ZM157.092 184.336L158.603 183.026C158.377 182.765 158.364 182.619 158.364 182.544H156.364H154.364C154.364 183.739 154.836 184.787 155.58 185.646L157.092 184.336ZM156.364 182.544H158.364C158.364 182.16 158.518 181.651 159.235 180.988L157.876 179.52L156.517 178.052C155.217 179.256 154.364 180.763 154.364 182.544H156.364ZM157.876 179.52L159.235 180.988C159.971 180.305 161.029 179.704 162.502 179.246L161.908 177.336L161.314 175.426C159.426 176.013 157.796 176.868 156.517 178.052L157.876 179.52ZM161.908 177.336L162.528 179.237C164.027 178.749 165.664 178.496 167.452 178.496V176.496V174.496C165.283 174.496 163.223 174.803 161.288 175.435L161.908 177.336ZM167.452 176.496V178.496C170.955 178.496 173.373 179.336 174.983 180.745L176.3 179.24L177.617 177.735C175.046 175.485 171.564 174.496 167.452 174.496V176.496ZM176.3 179.24L175.012 180.77C176.628 182.131 177.492 184.002 177.492 186.632H179.492H181.492C181.492 182.99 180.228 179.933 177.588 177.71L176.3 179.24ZM179.492 186.632H177.492V201.136H179.492H181.492V186.632H179.492ZM179.492 201.136H177.492C177.492 202.25 177.172 202.683 176.882 202.904L178.092 204.496L179.302 206.088C180.878 204.89 181.492 203.083 181.492 201.136H179.492ZM178.092 204.496L176.923 202.873C176.507 203.172 175.535 203.504 173.612 203.504V205.504V207.504C175.795 207.504 177.81 207.164 179.26 206.119L178.092 204.496ZM173.612 205.504H175.612V203.096H173.612H171.612V205.504H173.612ZM173.612 203.096L175.026 204.51C175.694 203.843 176.236 203.266 176.556 202.84L174.956 201.64L173.356 200.44C173.227 200.611 172.874 201.005 172.198 201.682L173.612 203.096ZM174.956 201.64L176.205 200.078L175.925 199.854L174.676 201.416L173.426 202.978L173.706 203.202L174.956 201.64ZM174.676 201.416L173.181 200.087C172.149 201.249 171.016 202.105 169.786 202.689L170.644 204.496L171.502 206.303C173.258 205.468 174.814 204.271 176.171 202.745L174.676 201.416ZM170.644 204.496L169.806 202.68C168.675 203.202 167.222 203.504 165.38 203.504V205.504V207.504C167.644 207.504 169.7 207.134 171.482 206.312L170.644 204.496ZM166.836 200.8V202.8C169.126 202.8 171.193 202.346 172.809 201.199L171.652 199.568L170.494 197.937C169.796 198.433 168.652 198.8 166.836 198.8V200.8ZM171.652 199.568L172.785 201.216C174.541 200.008 175.444 198.224 175.444 196.096H173.444H171.444C171.444 196.954 171.151 197.485 170.519 197.92L171.652 199.568ZM173.444 196.096H175.444C175.444 193.968 174.541 192.184 172.785 190.976L171.652 192.624L170.519 194.272C171.151 194.707 171.444 195.238 171.444 196.096H173.444ZM171.652 192.624L172.843 191.018C171.228 189.819 169.17 189.336 166.892 189.336V191.336V193.336C168.645 193.336 169.761 193.711 170.46 194.23L171.652 192.624ZM166.892 191.336V189.336C164.758 189.336 162.817 189.839 161.281 191.057L162.524 192.624L163.767 194.191C164.396 193.692 165.367 193.336 166.892 193.336V191.336ZM162.524 192.624L161.288 191.051C159.696 192.302 158.956 194.075 158.956 196.096H160.956H162.956C162.956 195.13 163.261 194.589 163.759 194.197L162.524 192.624ZM160.956 196.096H158.956C158.956 198.135 159.683 199.936 161.288 201.197L162.524 199.624L163.759 198.051C163.274 197.67 162.956 197.118 162.956 196.096H160.956ZM162.524 199.624L161.324 201.224C162.83 202.353 164.743 202.8 166.836 202.8V200.8V198.8C165.27 198.8 164.309 198.463 163.724 198.024L162.524 199.624ZM183.895 215.36L185.432 214.08L185.432 214.08L183.895 215.36ZM182.719 211.44L183.071 209.471L180.667 209.042L180.72 211.483L182.719 211.44ZM188.935 210.432L187.584 208.958L187.552 208.987L187.521 209.018L188.935 210.432ZM191.791 205.784L189.967 204.963L189.962 204.975L191.791 205.784ZM192.799 203.544L194.623 204.365L194.976 203.579L194.649 202.783L192.799 203.544ZM181.879 177L180.887 175.264L179.361 176.136L180.03 177.761L181.879 177ZM183.111 176.664L183.376 178.646L183.428 178.639L183.48 178.63L183.111 176.664ZM187.255 177.168L186.263 178.904L186.311 178.932L186.361 178.957L187.255 177.168ZM188.935 178.96L187.066 179.672L187.068 179.677L188.935 178.96ZM195.431 195.872L197.324 196.517L197.558 195.831L197.298 195.155L195.431 195.872ZM194.591 198.336L192.698 197.691L192.1 199.444L193.803 200.174L194.591 198.336ZM194.983 198.504L194.195 200.342L196.091 201.155L196.845 199.235L194.983 198.504ZM202.655 178.96L200.817 178.172L200.805 178.2L200.794 178.229L202.655 178.96ZM204.335 177.168L205.263 178.94L205.296 178.923L205.327 178.904L204.335 177.168ZM208.423 176.664L208.031 178.625L208.103 178.639L208.175 178.649L208.423 176.664ZM209.711 177L211.562 177.758L212.227 176.134L210.704 175.264L209.711 177ZM197.167 207.632L199.015 208.398L199.018 208.39L197.167 207.632ZM192.911 214.464L194.291 215.912L194.291 215.912L192.911 214.464ZM187.031 216.704V214.704C186.18 214.704 185.738 214.447 185.432 214.08L183.895 215.36L182.359 216.64C183.546 218.065 185.195 218.704 187.031 218.704V216.704ZM183.895 215.36L185.432 214.08C185.084 213.663 184.751 212.867 184.719 211.397L182.719 211.44L180.72 211.483C180.762 213.447 181.213 215.265 182.359 216.64L183.895 215.36ZM182.719 211.44L182.368 213.409C183.485 213.608 184.505 213.72 185.407 213.72V211.72V209.72C184.816 209.72 184.044 209.645 183.071 209.471L182.719 211.44ZM185.407 211.72V213.72C187.302 213.72 189.033 213.163 190.349 211.846L188.935 210.432L187.521 209.018C187.12 209.419 186.5 209.72 185.407 209.72V211.72ZM188.935 210.432L190.287 211.906C191.505 210.789 192.593 208.914 193.62 206.593L191.791 205.784L189.962 204.975C188.973 207.209 188.157 208.432 187.584 208.958L188.935 210.432ZM191.791 205.784L193.615 206.605L194.623 204.365L192.799 203.544L190.975 202.723L189.967 204.963L191.791 205.784ZM192.799 203.544L194.649 202.783L183.729 176.239L181.879 177L180.03 177.761L190.95 204.305L192.799 203.544ZM181.879 177L182.871 178.736C182.809 178.772 182.806 178.762 182.909 178.734C183.006 178.707 183.157 178.676 183.376 178.646L183.111 176.664L182.847 174.682C182.215 174.766 181.492 174.918 180.887 175.264L181.879 177ZM183.111 176.664L183.48 178.63C184.008 178.531 184.38 178.496 184.623 178.496V176.496V174.496C184.045 174.496 183.41 174.573 182.743 174.698L183.111 176.664ZM184.623 176.496V178.496C185.273 178.496 185.804 178.642 186.263 178.904L187.255 177.168L188.247 175.432C187.139 174.798 185.915 174.496 184.623 174.496V176.496ZM187.255 177.168L186.361 178.957C186.78 179.166 186.964 179.402 187.066 179.672L188.935 178.96L190.804 178.248C190.31 176.95 189.373 175.991 188.15 175.379L187.255 177.168ZM188.935 178.96L187.068 179.677L193.564 196.589L195.431 195.872L197.298 195.155L190.802 178.243L188.935 178.96ZM195.431 195.872L193.538 195.227L192.698 197.691L194.591 198.336L196.484 198.981L197.324 196.517L195.431 195.872ZM194.591 198.336L193.803 200.174L194.195 200.342L194.983 198.504L195.771 196.666L195.379 196.498L194.591 198.336ZM194.983 198.504L196.845 199.235L204.517 179.691L202.655 178.96L200.794 178.229L193.122 197.773L194.983 198.504ZM202.655 178.96L204.494 179.748C204.641 179.404 204.87 179.146 205.263 178.94L204.335 177.168L203.407 175.396C202.232 176.012 201.341 176.948 200.817 178.172L202.655 178.96ZM204.335 177.168L205.327 178.904C205.787 178.642 206.318 178.496 206.967 178.496V176.496V174.496C205.675 174.496 204.452 174.798 203.343 175.432L204.335 177.168ZM206.967 176.496V178.496C207.206 178.496 207.554 178.53 208.031 178.625L208.423 176.664L208.815 174.703C208.172 174.574 207.549 174.496 206.967 174.496V176.496ZM208.423 176.664L208.175 178.649C208.416 178.679 208.582 178.711 208.688 178.739C208.805 178.77 208.795 178.78 208.719 178.736L209.711 177L210.704 175.264C210.082 174.908 209.321 174.761 208.671 174.679L208.423 176.664ZM209.711 177L207.86 176.242L195.316 206.874L197.167 207.632L199.018 208.39L211.562 177.758L209.711 177ZM197.167 207.632L195.32 206.866C194.106 209.793 192.82 211.789 191.532 213.016L192.911 214.464L194.291 215.912C196.139 214.152 197.69 211.594 199.015 208.398L197.167 207.632ZM192.911 214.464L191.532 213.016C190.369 214.123 188.918 214.704 187.031 214.704V216.704V218.704C189.848 218.704 192.317 217.792 194.291 215.912L192.911 214.464ZM216.108 203.544L215.075 205.256L215.081 205.26L215.088 205.264L216.108 203.544ZM217.116 195.144L219.082 194.775L218.763 193.077L217.037 193.146L217.116 195.144ZM219.58 199.232L218.417 200.859L218.433 200.871L218.449 200.881L219.58 199.232ZM229.044 199.792L229.89 201.604L229.914 201.593L229.938 201.581L229.044 199.792ZM229.268 194.864L228.143 196.518L228.181 196.543L228.22 196.567L229.268 194.864ZM223.836 192.96L224.295 191.014L224.286 191.011L224.276 191.009L223.836 192.96ZM217.564 191.056L216.76 192.887L216.76 192.887L217.564 191.056ZM214.092 188.48L212.464 189.642L212.478 189.661L212.492 189.68L214.092 188.48ZM215.94 178.68L214.769 177.059L214.762 177.064L214.755 177.069L215.94 178.68ZM232.18 178.288L233.133 176.53L233.133 176.53L232.18 178.288ZM234.364 185.232L233.274 183.555L233.254 183.568L233.235 183.581L234.364 185.232ZM231.06 186.016L229.094 186.386L229.409 188.058L231.11 188.015L231.06 186.016ZM220.42 182.096L219.475 180.333L219.462 180.34L219.449 180.348L220.42 182.096ZM220.252 186.464L219.244 188.192L219.286 188.216L219.329 188.238L220.252 186.464ZM224.9 187.864L225.309 185.906L225.305 185.905L224.9 187.864ZM233.86 191.336L235.09 189.759L235.09 189.759L233.86 191.336ZM233.412 203.32L234.528 204.98L234.538 204.973L234.547 204.966L233.412 203.32ZM224.508 205.504V203.504C221.356 203.504 218.937 202.897 217.128 201.824L216.108 203.544L215.088 205.264C217.684 206.804 220.865 207.504 224.508 207.504V205.504ZM216.108 203.544L217.141 201.832C215.457 200.815 214.86 199.672 214.86 198.336H212.86H210.86C210.86 201.331 212.428 203.659 215.075 205.256L216.108 203.544ZM212.86 198.336H214.86C214.86 197.859 214.992 197.725 215.124 197.626C215.367 197.444 215.958 197.191 217.195 197.142L217.116 195.144L217.037 193.146C215.436 193.209 213.9 193.544 212.724 194.426C211.437 195.391 210.86 196.797 210.86 198.336H212.86ZM217.116 195.144L215.15 195.513C215.567 197.738 216.633 199.585 218.417 200.859L219.58 199.232L220.742 197.605C219.914 197.013 219.336 196.134 219.082 194.775L217.116 195.144ZM219.58 199.232L218.449 200.881C220.144 202.044 222.143 202.576 224.34 202.576V200.576V198.576C222.803 198.576 221.629 198.212 220.711 197.583L219.58 199.232ZM224.34 200.576V202.576C226.486 202.576 228.389 202.305 229.89 201.604L229.044 199.792L228.198 197.98C227.459 198.325 226.226 198.576 224.34 198.576V200.576ZM229.044 199.792L229.938 201.581C230.726 201.187 231.441 200.639 231.956 199.883C232.483 199.11 232.724 198.234 232.724 197.328H230.724H228.724C228.724 197.505 228.685 197.58 228.651 197.629C228.607 197.694 228.482 197.837 228.149 198.003L229.044 199.792ZM230.724 197.328H232.724C232.724 195.516 231.814 194.083 230.316 193.161L229.268 194.864L228.22 196.567C228.663 196.84 228.724 197.049 228.724 197.328H230.724ZM229.268 194.864L230.393 193.21C229.12 192.345 226.974 191.646 224.295 191.014L223.836 192.96L223.376 194.906C226.073 195.543 227.549 196.114 228.143 196.518L229.268 194.864ZM223.836 192.96L224.276 191.009C221.683 190.425 219.732 189.823 218.368 189.225L217.564 191.056L216.76 192.887C218.457 193.633 220.688 194.301 223.396 194.911L223.836 192.96ZM217.564 191.056L218.368 189.225C217.066 188.653 216.219 187.983 215.692 187.28L214.092 188.48L212.492 189.68C213.532 191.067 215 192.115 216.76 192.887L217.564 191.056ZM214.092 188.48L215.719 187.318C215.285 186.709 214.972 185.775 214.972 184.336H212.972H210.972C210.972 186.332 211.406 188.16 212.464 189.642L214.092 188.48ZM212.972 184.336H214.972C214.972 182.702 215.622 181.397 217.125 180.291L215.94 178.68L214.755 177.069C212.3 178.875 210.972 181.341 210.972 184.336H212.972ZM215.94 178.68L217.111 180.301C218.685 179.165 220.919 178.496 224.004 178.496V176.496V174.496C220.369 174.496 217.227 175.283 214.769 177.059L215.94 178.68ZM224.004 176.496V178.496C227.015 178.496 229.39 179.05 231.226 180.046L232.18 178.288L233.133 176.53C230.564 175.136 227.489 174.496 224.004 174.496V176.496ZM232.18 178.288L231.226 180.046C232.986 181 233.484 182.007 233.484 183.048H235.484H237.484C237.484 180.132 235.779 177.965 233.133 176.53L232.18 178.288ZM235.484 183.048H233.484C233.484 183.275 233.441 183.376 233.424 183.409C233.411 183.436 233.381 183.485 233.274 183.555L234.364 185.232L235.454 186.909C236.826 186.017 237.484 184.623 237.484 183.048H235.484ZM234.364 185.232L233.235 183.581C233.002 183.741 232.368 183.983 231.01 184.017L231.06 186.016L231.11 188.015C232.739 187.975 234.308 187.694 235.493 186.883L234.364 185.232ZM231.06 186.016L233.025 185.646C232.648 183.64 231.696 181.953 230.068 180.809C228.487 179.699 226.489 179.256 224.284 179.256V181.256V183.256C225.999 183.256 227.09 183.606 227.768 184.083C228.399 184.526 228.875 185.218 229.094 186.386L231.06 186.016ZM224.284 181.256V179.256C222.517 179.256 220.884 179.579 219.475 180.333L220.42 182.096L221.364 183.859C222.047 183.493 222.99 183.256 224.284 183.256V181.256ZM220.42 182.096L219.449 180.348C218.017 181.143 216.908 182.444 216.908 184.28H218.908H220.908C220.908 184.246 220.912 184.233 220.913 184.232C220.913 184.232 220.915 184.222 220.93 184.2C220.963 184.153 221.077 184.019 221.391 183.844L220.42 182.096ZM218.908 184.28H216.908C216.908 186.015 217.816 187.359 219.244 188.192L220.252 186.464L221.26 184.736C221.036 184.606 220.966 184.508 220.947 184.478C220.935 184.458 220.908 184.412 220.908 184.28H218.908ZM220.252 186.464L219.329 188.238C220.522 188.859 222.302 189.369 224.495 189.823L224.9 187.864L225.305 185.905C223.167 185.463 221.848 185.04 221.175 184.69L220.252 186.464ZM224.9 187.864L224.491 189.822C228.495 190.659 231.124 191.738 232.63 192.913L233.86 191.336L235.09 189.759C232.862 188.022 229.518 186.786 225.309 185.906L224.9 187.864ZM233.86 191.336L232.63 192.913C233.971 193.959 234.66 195.354 234.66 197.328H236.66H238.66C238.66 194.225 237.482 191.625 235.09 189.759L233.86 191.336ZM236.66 197.328H234.66C234.66 199.133 233.934 200.531 232.276 201.674L233.412 203.32L234.547 204.966C237.221 203.123 238.66 200.526 238.66 197.328H236.66ZM233.412 203.32L232.296 201.66C230.577 202.816 228.05 203.504 224.508 203.504V205.504V207.504C228.508 207.504 231.916 206.736 234.528 204.98L233.412 203.32ZM246.198 204.216L245.347 206.026L245.368 206.036L245.389 206.045L246.198 204.216ZM241.662 200.576L240.029 201.731L240.039 201.744L240.048 201.757L241.662 200.576ZM241.662 181.704L243.32 182.822L243.32 182.822L241.662 181.704ZM246.142 177.896L245.276 176.093L245.269 176.097L245.262 176.1L246.142 177.896ZM259.19 177.896L258.31 179.692L258.317 179.695L258.324 179.699L259.19 177.896ZM263.726 181.704L265.384 180.586L265.384 180.586L263.726 181.704ZM263.67 200.576L262.056 199.395L262.047 199.408L262.037 199.421L263.67 200.576ZM259.134 204.216L259.956 206.039L259.964 206.036L259.972 206.032L259.134 204.216ZM257.398 198.728L258.623 200.309L258.638 200.297L258.654 200.285L257.398 198.728ZM257.398 183.384L256.085 184.892L256.085 184.892L257.398 183.384ZM247.99 183.384L249.304 184.892L249.304 184.892L247.99 183.384ZM247.99 198.728L246.735 200.285L246.75 200.297L246.766 200.309L247.99 198.728ZM252.694 205.504V203.504C250.549 203.504 248.664 203.12 247.007 202.387L246.198 204.216L245.389 206.045C247.616 207.03 250.061 207.504 252.694 207.504V205.504ZM246.198 204.216L247.05 202.406C245.415 201.637 244.178 200.627 243.276 199.395L241.662 200.576L240.048 201.757C241.387 203.586 243.174 205.003 245.347 206.026L246.198 204.216ZM241.662 200.576L243.295 199.421C242.46 198.241 242.038 196.911 242.038 195.368H240.038H238.038C238.038 197.707 238.699 199.85 240.029 201.731L241.662 200.576ZM240.038 195.368H242.038V187.08H240.038H238.038V195.368H240.038ZM240.038 187.08H242.038C242.038 185.491 242.466 184.09 243.32 182.822L241.662 181.704L240.004 180.586C238.694 182.529 238.038 184.712 238.038 187.08H240.038ZM241.662 181.704L243.32 182.822C244.189 181.534 245.402 180.486 247.023 179.692L246.142 177.896L245.262 176.1C243.075 177.172 241.301 178.663 240.004 180.586L241.662 181.704ZM246.142 177.896L247.009 179.699C248.647 178.911 250.529 178.496 252.694 178.496V176.496V174.496C250.006 174.496 247.52 175.015 245.276 176.093L246.142 177.896ZM252.694 176.496V178.496C254.86 178.496 256.717 178.911 258.31 179.692L259.19 177.896L260.071 176.1C257.855 175.014 255.382 174.496 252.694 174.496V176.496ZM259.19 177.896L258.324 179.699C259.982 180.496 261.206 181.543 262.068 182.822L263.726 181.704L265.384 180.586C264.082 178.654 262.281 177.163 260.057 176.093L259.19 177.896ZM263.726 181.704L262.068 182.822C262.923 184.09 263.35 185.491 263.35 187.08H265.35H267.35C267.35 184.712 266.695 182.529 265.384 180.586L263.726 181.704ZM265.35 187.08H263.35V195.368H265.35H267.35V187.08H265.35ZM265.35 195.368H263.35C263.35 196.895 262.919 198.216 262.056 199.395L263.67 200.576L265.284 201.757C266.661 199.875 267.35 197.723 267.35 195.368H265.35ZM263.67 200.576L262.037 199.421C261.184 200.627 259.965 201.63 258.296 202.4L259.134 204.216L259.972 206.032C262.187 205.01 263.991 203.586 265.303 201.731L263.67 200.576ZM259.134 204.216L258.312 202.393C256.701 203.119 254.841 203.504 252.694 203.504V205.504V207.504C255.326 207.504 257.759 207.03 259.956 206.039L259.134 204.216ZM252.694 200.072V202.072C254.961 202.072 257.01 201.558 258.623 200.309L257.398 198.728L256.174 197.147C255.472 197.69 254.384 198.072 252.694 198.072V200.072ZM257.398 198.728L258.654 200.285C260.311 198.949 261.134 197.111 261.134 194.976H259.134H257.134C257.134 195.977 256.8 196.641 256.143 197.171L257.398 198.728ZM259.134 194.976H261.134V187.36H259.134H257.134V194.976H259.134ZM259.134 187.36H261.134C261.134 185.185 260.339 183.293 258.712 181.876L257.398 183.384L256.085 184.892C256.772 185.491 257.134 186.25 257.134 187.36H259.134ZM257.398 183.384L258.712 181.876C257.095 180.468 255.013 179.872 252.694 179.872V181.872V183.872C254.333 183.872 255.387 184.284 256.085 184.892L257.398 183.384ZM252.694 181.872V179.872C250.376 179.872 248.293 180.468 246.677 181.876L247.99 183.384L249.304 184.892C250.002 184.284 251.055 183.872 252.694 183.872V181.872ZM247.99 183.384L246.677 181.876C245.05 183.293 244.254 185.185 244.254 187.36H246.254H248.254C248.254 186.25 248.616 185.491 249.304 184.892L247.99 183.384ZM246.254 187.36H244.254V194.976H246.254H248.254V187.36H246.254ZM246.254 194.976H244.254C244.254 197.111 245.078 198.949 246.735 200.285L247.99 198.728L249.246 197.171C248.588 196.641 248.254 195.977 248.254 194.976H246.254ZM247.99 198.728L246.766 200.309C248.379 201.558 250.427 202.072 252.694 202.072V200.072V198.072C251.004 198.072 249.916 197.69 249.215 197.147L247.99 198.728ZM276.916 176.496H278.916V174.496H276.916V176.496ZM276.916 179.912L278.411 181.241L278.916 180.672V179.912H276.916ZM275.628 181.648L273.867 180.7L273.077 182.168L274.379 183.21L275.628 181.648ZM275.908 181.872L274.659 183.434L276.345 184.783L277.561 182.998L275.908 181.872ZM279.66 177.896L280.791 179.545L280.807 179.535L280.823 179.523L279.66 177.896ZM291.14 181.312L289.288 182.066L290.751 185.661L292.829 182.383L291.14 181.312ZM294.724 177.784L295.726 179.515L295.743 179.505L295.76 179.495L294.724 177.784ZM305.7 179.24L304.135 180.485L304.143 180.495L304.151 180.505L305.7 179.24ZM306.428 204.552L305.362 202.86L305.362 202.86L306.428 204.552ZM301.78 205.504H299.78V207.504H301.78V205.504ZM300.772 183.16L299.172 184.36L299.184 184.376L299.197 184.393L300.772 183.16ZM293.996 183.328L295.41 184.742L295.41 184.742L293.996 183.328ZM291.028 204.552L292.094 206.244L292.094 206.244L291.028 204.552ZM286.436 205.504H284.436V207.504H286.436V205.504ZM278.54 183.496L277.029 182.186L277.016 182.201L277.004 182.216L278.54 183.496ZM275.628 204.552L276.694 206.244L276.694 206.244L275.628 204.552ZM270.98 205.504H268.98V207.504H270.98V205.504ZM270.98 181.48H272.98C272.98 180.228 273.336 179.621 273.75 179.274C274.231 178.87 275.169 178.496 276.916 178.496V176.496V174.496C274.706 174.496 272.676 174.953 271.178 176.21C269.613 177.524 268.98 179.41 268.98 181.48H270.98ZM276.916 176.496H274.916V179.912H276.916H278.916V176.496H276.916ZM276.916 179.912L275.421 178.583C274.777 179.308 274.233 180.019 273.867 180.7L275.628 181.648L277.389 182.596C277.545 182.306 277.861 181.86 278.411 181.241L276.916 179.912ZM275.628 181.648L274.379 183.21L274.659 183.434L275.908 181.872L277.157 180.31L276.877 180.086L275.628 181.648ZM275.908 181.872L277.561 182.998C278.661 181.383 279.746 180.262 280.791 179.545L279.66 177.896L278.529 176.247C276.961 177.322 275.545 178.852 274.255 180.746L275.908 181.872ZM279.66 177.896L280.823 179.523C281.751 178.86 282.882 178.496 284.308 178.496V176.496V174.496C282.15 174.496 280.182 175.065 278.498 176.269L279.66 177.896ZM284.308 176.496V178.496C285.59 178.496 286.552 178.807 287.3 179.335C288.057 179.869 288.743 180.729 289.288 182.066L291.14 181.312L292.992 180.558C292.23 178.685 291.124 177.137 289.604 176.065C288.075 174.987 286.274 174.496 284.308 174.496V176.496ZM291.14 181.312L292.829 182.383C293.646 181.095 294.615 180.158 295.726 179.515L294.724 177.784L293.722 176.053C291.996 177.052 290.576 178.467 289.451 180.241L291.14 181.312ZM294.724 177.784L295.76 179.495C296.828 178.848 298.103 178.496 299.652 178.496V176.496V174.496C297.467 174.496 295.457 175.002 293.688 176.073L294.724 177.784ZM299.652 176.496V178.496C301.689 178.496 303.101 179.186 304.135 180.485L305.7 179.24L307.265 177.995C305.387 175.636 302.767 174.496 299.652 174.496V176.496ZM305.7 179.24L304.151 180.505C305.297 181.909 305.94 183.767 305.94 186.24H307.94H309.94C309.94 183.038 309.09 180.23 307.249 177.975L305.7 179.24ZM307.94 186.24H305.94V201.472H307.94H309.94V186.24H307.94ZM307.94 201.472H305.94C305.94 202.356 305.67 202.666 305.362 202.86L306.428 204.552L307.494 206.244C309.202 205.169 309.94 203.425 309.94 201.472H307.94ZM306.428 204.552L305.362 202.86C304.833 203.193 303.742 203.504 301.78 203.504V205.504V207.504C303.999 207.504 306.007 207.181 307.494 206.244L306.428 204.552ZM301.78 205.504H303.78V186.744H301.78H299.78V205.504H301.78ZM301.78 186.744H303.78C303.78 184.943 303.386 183.256 302.347 181.927L300.772 183.16L299.197 184.393C299.502 184.782 299.78 185.483 299.78 186.744H301.78ZM300.772 183.16L302.372 181.96C301.234 180.442 299.539 179.816 297.692 179.816V181.816V183.816C298.607 183.816 298.966 184.086 299.172 184.36L300.772 183.16ZM297.692 181.816V179.816C295.718 179.816 293.974 180.522 292.582 181.914L293.996 183.328L295.41 184.742C296.034 184.118 296.754 183.816 297.692 183.816V181.816ZM293.996 183.328L292.582 181.914C291.104 183.392 290.54 185.446 290.54 187.696H292.54H294.54C294.54 186.063 294.947 185.206 295.41 184.742L293.996 183.328ZM292.54 187.696H290.54V201.472H292.54H294.54V187.696H292.54ZM292.54 201.472H290.54C290.54 202.356 290.27 202.666 289.962 202.86L291.028 204.552L292.094 206.244C293.802 205.169 294.54 203.425 294.54 201.472H292.54ZM291.028 204.552L289.962 202.86C289.429 203.195 288.353 203.504 286.436 203.504V205.504V207.504C288.626 207.504 290.611 207.178 292.094 206.244L291.028 204.552ZM286.436 205.504H288.436V186.744H286.436H284.436V205.504H286.436ZM286.436 186.744H288.436C288.436 184.88 288.063 183.11 286.976 181.782C285.826 180.376 284.174 179.816 282.404 179.816V181.816V183.816C283.322 183.816 283.686 184.077 283.88 184.314C284.137 184.629 284.436 185.323 284.436 186.744H286.436ZM282.404 181.816V179.816C280.273 179.816 278.413 180.588 277.029 182.186L278.54 183.496L280.051 184.806C280.608 184.164 281.324 183.816 282.404 183.816V181.816ZM278.54 183.496L277.004 182.216C275.707 183.772 275.14 185.715 275.14 187.864H277.14H279.14C279.14 186.429 279.507 185.46 280.076 184.776L278.54 183.496ZM277.14 187.864H275.14V201.472H277.14H279.14V187.864H277.14ZM277.14 201.472H275.14C275.14 202.356 274.87 202.666 274.562 202.86L275.628 204.552L276.694 206.244C278.402 205.169 279.14 203.425 279.14 201.472H277.14ZM275.628 204.552L274.562 202.86C274.033 203.193 272.942 203.504 270.98 203.504V205.504V207.504C273.199 207.504 275.207 207.181 276.694 206.244L275.628 204.552ZM270.98 205.504H272.98V181.48H270.98H268.98V205.504H270.98ZM320.726 204.16L319.86 205.963L319.867 205.966L319.874 205.97L320.726 204.16ZM316.302 200.464L314.644 201.582L314.65 201.591L314.656 201.6L316.302 200.464ZM316.358 181.816L314.706 180.689L314.706 180.689L316.358 181.816ZM320.894 177.952L321.774 179.748L321.788 179.741L321.802 179.734L320.894 177.952ZM333.046 177.84L332.152 179.629L332.159 179.633L332.166 179.636L333.046 177.84ZM337.358 181.648L335.671 182.722L335.685 182.744L335.7 182.766L337.358 181.648ZM338.142 192.288L339.507 193.75L339.507 193.75L338.142 192.288ZM320.782 193.072V191.072H318.782V193.072H320.782ZM322.35 198.84L320.936 200.254L320.948 200.267L320.961 200.279L322.35 198.84ZM331.59 199.12L332.887 200.642L332.903 200.629L332.919 200.615L331.59 199.12ZM333.102 195.592L332.773 193.619L331.102 193.898V195.592H333.102ZM337.134 196.432L335.885 197.994L335.927 198.028L335.971 198.059L337.134 196.432ZM336.798 202.088L338.212 203.502L338.225 203.489L338.238 203.476L336.798 202.088ZM332.654 204.552L331.974 202.671L331.961 202.676L332.654 204.552ZM333.214 188.424V190.424H335.214V188.424H333.214ZM331.478 183.048L330.113 184.51L330.138 184.534L330.164 184.556L331.478 183.048ZM322.462 183.048L323.8 184.535L323.803 184.532L322.462 183.048ZM320.782 188.424H318.782V190.424H320.782V188.424ZM326.998 205.504V203.504C324.99 203.504 323.194 203.111 321.578 202.35L320.726 204.16L319.874 205.97C322.066 207.001 324.451 207.504 326.998 207.504V205.504ZM320.726 204.16L321.591 202.357C320.01 201.598 318.816 200.585 317.948 199.328L316.302 200.464L314.656 201.6C315.953 203.479 317.708 204.93 319.86 205.963L320.726 204.16ZM316.302 200.464L317.96 199.346C317.105 198.078 316.678 196.677 316.678 195.088H314.678H312.678C312.678 197.456 313.333 199.639 314.644 201.582L316.302 200.464ZM314.678 195.088H316.678V187.36H314.678H312.678V195.088H314.678ZM314.678 187.36H316.678C316.678 185.695 317.125 184.242 318.01 182.943L316.358 181.816L314.706 180.689C313.351 182.675 312.678 184.919 312.678 187.36H314.678ZM316.358 181.816L318.01 182.943C318.922 181.605 320.16 180.539 321.774 179.748L320.894 177.952L320.014 176.156C317.82 177.231 316.034 178.741 314.706 180.689L316.358 181.816ZM320.894 177.952L321.802 179.734C323.416 178.911 325.157 178.496 327.054 178.496V176.496V174.496C324.546 174.496 322.18 175.052 319.986 176.17L320.894 177.952ZM327.054 176.496V178.496C328.977 178.496 330.664 178.885 332.152 179.629L333.046 177.84L333.94 176.051C331.844 175.003 329.536 174.496 327.054 174.496V176.496ZM333.046 177.84L332.166 179.636C333.681 180.378 334.832 181.404 335.671 182.722L337.358 181.648L339.045 180.574C337.793 178.606 336.07 177.094 333.926 176.044L333.046 177.84ZM337.358 181.648L335.7 182.766C336.55 184.027 336.982 185.445 336.982 187.08H338.982H340.982C340.982 184.683 340.331 182.48 339.016 180.53L337.358 181.648ZM338.982 187.08H336.982V190.384H338.982H340.982V187.08H338.982ZM338.982 190.384H336.982C336.982 190.56 336.944 190.67 336.777 190.826L338.142 192.288L339.507 193.75C340.46 192.86 340.982 191.701 340.982 190.384H338.982ZM338.142 192.288L336.777 190.826C336.633 190.96 336.432 191.072 336.014 191.072V193.072V195.072C337.313 195.072 338.531 194.661 339.507 193.75L338.142 192.288ZM336.014 193.072V191.072H320.782V193.072V195.072H336.014V193.072ZM320.782 193.072H318.782V194.696H320.782H322.782V193.072H320.782ZM320.782 194.696H318.782C318.782 196.851 319.455 198.773 320.936 200.254L322.35 198.84L323.764 197.426C323.155 196.816 322.782 195.976 322.782 194.696H320.782ZM322.35 198.84L320.961 200.279C322.535 201.799 324.675 202.408 327.054 202.408V200.408V198.408C325.326 198.408 324.33 197.972 323.739 197.401L322.35 198.84ZM327.054 200.408V202.408C329.307 202.408 331.37 201.935 332.887 200.642L331.59 199.12L330.293 197.598C329.794 198.022 328.833 198.408 327.054 198.408V200.408ZM331.59 199.12L332.919 200.615C334.39 199.307 335.102 197.568 335.102 195.592H333.102H331.102C331.102 196.528 330.805 197.141 330.261 197.625L331.59 199.12ZM333.102 195.592L333.431 197.565C333.486 197.556 333.688 197.536 334.11 197.536V195.536V193.536C333.636 193.536 333.166 193.554 332.773 193.619L333.102 195.592ZM334.11 195.536V197.536C335.074 197.536 335.594 197.761 335.885 197.994L337.134 196.432L338.383 194.87C337.181 193.908 335.684 193.536 334.11 193.536V195.536ZM337.134 196.432L335.971 198.059C336.18 198.208 336.31 198.376 336.31 198.84H338.31H340.31C340.31 197.213 339.656 195.776 338.296 194.805L337.134 196.432ZM338.31 198.84H336.31C336.31 199.302 336.117 199.912 335.358 200.7L336.798 202.088L338.238 203.476C339.495 202.173 340.31 200.618 340.31 198.84H338.31ZM336.798 202.088L335.384 200.674C334.637 201.421 333.534 202.107 331.974 202.671L332.654 204.552L333.334 206.433C335.283 205.728 336.943 204.771 338.212 203.502L336.798 202.088ZM332.654 204.552L331.961 202.676C330.491 203.219 328.843 203.504 326.998 203.504V205.504V207.504C329.259 207.504 331.383 207.154 333.347 206.428L332.654 204.552ZM333.214 188.424H335.214V187.08H333.214H331.214V188.424H333.214ZM333.214 187.08H335.214C335.214 184.883 334.429 182.966 332.792 181.54L331.478 183.048L330.164 184.556C330.841 185.146 331.214 185.917 331.214 187.08H333.214ZM331.478 183.048L332.843 181.586C331.275 180.123 329.255 179.48 326.998 179.48V181.48V183.48C328.475 183.48 329.441 183.883 330.113 184.51L331.478 183.048ZM326.998 181.48V179.48C324.739 179.48 322.716 180.123 321.121 181.564L322.462 183.048L323.803 184.532C324.522 183.882 325.524 183.48 326.998 183.48V181.48ZM322.462 183.048L321.124 181.561C319.532 182.995 318.782 184.906 318.782 187.08H320.782H322.782C322.782 185.894 323.152 185.117 323.8 184.535L322.462 183.048ZM320.782 187.08H318.782V188.424H320.782H322.782V187.08H320.782ZM320.782 188.424V190.424H333.214V188.424V186.424H320.782V188.424Z" fill="#065300" mask="url(#path-4-outside-1_2_6)"/>
</svg>
